<svg 
 xmlns="http://www.w3.org/2000/svg"
 xmlns:xlink="http://www.w3.org/1999/xlink"
 width="36px" height="43px">
<path fill-rule="evenodd"  fill="rgb(250, 200, 24)"
 d="M0.224,8.213 C-0.539,5.836 0.722,3.263 3.037,2.479 C5.351,1.694 7.855,2.990 8.619,5.368 L17.304,32.410 C16.495,32.191 15.634,32.151 14.774,32.312 L6.366,6.131 C6.013,5.030 4.852,4.429 3.780,4.793 C2.708,5.156 2.123,6.348 2.477,7.450 C2.682,8.089 2.344,8.778 1.722,8.989 C1.100,9.199 0.430,8.853 0.224,8.213 L0.224,8.213 ZM34.443,29.427 L20.213,34.250 C20.718,34.840 21.118,35.540 21.373,36.331 C21.382,36.359 21.387,36.388 21.395,36.416 L35.186,31.742 C35.808,31.531 36.146,30.842 35.940,30.202 C35.735,29.563 35.065,29.216 34.443,29.427 L34.443,29.427 ZM20.246,36.713 C21.052,39.224 19.725,41.930 17.282,42.758 C14.838,43.587 12.204,42.223 11.397,39.713 C10.591,37.202 11.919,34.496 14.362,33.667 C16.806,32.839 19.440,34.203 20.246,36.713 L20.246,36.713 ZM18.034,37.463 C17.631,36.208 16.314,35.526 15.092,35.940 C13.870,36.354 13.207,37.708 13.610,38.963 C14.013,40.218 15.330,40.900 16.552,40.486 C17.774,40.072 18.437,38.718 18.034,37.463 L18.034,37.463 ZM30.847,11.084 L35.678,26.127 C35.780,26.446 35.611,26.791 35.300,26.896 L20.095,32.050 C19.784,32.156 19.449,31.982 19.346,31.663 L14.515,16.620 C14.412,16.300 14.581,15.956 14.892,15.850 L30.098,10.696 C30.409,10.591 30.744,10.764 30.847,11.084 L30.847,11.084 ZM28.835,19.822 L23.658,16.896 L21.193,22.413 L22.825,23.184 L23.890,20.797 L25.815,26.789 L27.657,26.165 L25.733,20.174 L27.971,21.440 L28.835,19.822 ZM24.317,10.848 L21.229,1.231 C21.163,1.026 20.949,0.915 20.750,0.983 L18.101,1.881 L18.088,1.905 L18.066,1.892 L16.669,2.366 L17.819,5.949 L16.244,6.483 L15.093,2.900 L13.695,3.374 L13.684,3.398 L13.660,3.386 L11.029,4.278 C10.830,4.345 10.722,4.566 10.787,4.770 L13.876,14.387 C13.942,14.592 14.156,14.703 14.355,14.635 L24.076,11.340 C24.275,11.273 24.383,11.052 24.317,10.848 L24.317,10.848 Z"/>
</svg>