<svg xmlns="http://www.w3.org/2000/svg" viewBox="0 0 224 27">                                 
    <path d="M0,0 L0,13.3442965 L28.1293945,26.309082 L28.1293945,13.3442961 L0,0 Z" fill="#e43516" transform="translate(0,0) scale(1,1)"></path>
    <path d="M0,0 L0,13.3442965 L28.1293945,26.309082 L28.1293945,13.3442961 L0,0 Z" fill="#b9296e" transform="translate(28,27) scale(1,-1)"></path>
    <path d="M0,0 L0,13.3442965 L28.1293945,26.309082 L28.1293945,13.3442961 L0,0 Z" fill="#640048" transform="translate(56,0) scale(1,1)"></path>
    <path d="M0,0 L0,13.3442965 L28.1293945,26.309082 L28.1293945,13.3442961 L0,0 Z" fill="#003a79" transform="translate(84,27) scale(1,-1)"></path>
    <path d="M0,0 L0,13.3442965 L28.1293945,26.309082 L28.1293945,13.3442961 L0,0 Z" fill="#007a55" transform="translate(112,0) scale(1,1)"></path>
    <path d="M0,0 L0,13.3442965 L28.1293945,26.309082 L28.1293945,13.3442961 L0,0 Z" fill="#96be0d" transform="translate(140,27) scale(1,-1)"></path>
    <path d="M0,0 L0,13.3442965 L28.1293945,26.309082 L28.1293945,13.3442961 L0,0 Z" fill="#f9ba00" transform="translate(168,0) scale(1,1)"></path>
    <path d="M0,0 L0,13.3442965 L28.1293945,26.309082 L28.1293945,13.3442961 L0,0 Z" fill="#fdc602" transform="translate(196,27) scale(1,-1)"></path>                             
</svg>                         
