<svg 
 xmlns="http://www.w3.org/2000/svg"
 xmlns:xlink="http://www.w3.org/1999/xlink"
 width="19px" height="18px">
<path fill-rule="evenodd"  fill="rgb(255, 255, 255)"
 d="M17.209,11.114 C17.165,11.114 17.119,11.117 17.075,11.121 C17.045,11.123 17.015,11.126 16.991,11.126 L16.172,11.126 L16.257,10.666 L16.263,10.586 C16.263,10.011 15.804,9.541 15.239,9.541 L13.841,9.541 C13.276,9.541 12.817,10.011 12.817,10.586 L12.911,11.126 L5.825,11.126 L5.908,10.666 L5.916,10.586 C5.916,10.009 5.456,9.541 4.890,9.541 L3.494,9.541 C2.929,9.541 2.468,10.009 2.468,10.586 L2.564,11.126 L2.124,11.126 C2.081,11.124 2.039,11.126 1.997,11.128 C1.970,11.130 1.946,11.130 1.919,11.130 C1.071,11.111 0.429,10.874 0.000,10.432 L0.000,4.933 C0.000,3.923 0.792,3.417 1.796,3.104 C1.796,3.104 3.506,2.860 5.520,2.668 L5.614,1.568 C5.629,0.701 6.325,0.000 7.181,0.000 L11.819,0.000 C12.675,0.000 13.372,0.701 13.386,1.568 L13.478,2.668 C15.492,2.860 17.202,3.104 17.202,3.104 C18.188,3.403 19.000,3.923 19.000,4.933 L19.000,10.538 C18.574,10.901 17.975,11.097 17.209,11.114 ZM12.248,1.595 C12.248,1.355 12.055,1.158 11.819,1.158 L7.181,1.158 C6.944,1.158 6.752,1.355 6.752,1.595 L6.750,1.645 L6.671,2.565 C7.653,2.487 8.646,2.432 9.500,2.432 C10.352,2.432 11.347,2.487 12.329,2.565 L12.248,1.595 ZM4.791,13.029 L3.594,13.029 C3.553,13.029 3.521,12.996 3.521,12.957 L3.521,11.996 L4.863,11.996 L4.863,12.957 C4.863,12.996 4.829,13.029 4.791,13.029 ZM3.324,10.557 C3.337,10.475 3.408,10.411 3.494,10.411 L4.890,10.411 C4.976,10.411 5.047,10.475 5.061,10.557 L4.956,11.126 L3.427,11.126 L3.324,10.557 ZM15.139,13.029 L13.941,13.029 C13.902,13.029 13.870,12.996 13.870,12.957 L13.870,11.996 L15.210,11.996 L15.210,12.957 C15.210,12.996 15.178,13.029 15.139,13.029 ZM13.673,10.557 C13.684,10.475 13.757,10.411 13.841,10.411 L15.239,10.411 C15.323,10.411 15.394,10.475 15.407,10.557 L15.305,11.126 L13.775,11.126 L13.673,10.557 ZM1.930,11.998 C1.962,11.998 1.993,11.998 2.027,11.996 C2.053,11.996 2.080,11.994 2.114,11.994 L2.667,11.994 L2.667,12.957 C2.667,13.476 3.082,13.899 3.594,13.899 L4.791,13.899 C5.300,13.899 5.716,13.476 5.716,12.957 L5.716,11.994 L13.016,11.994 L13.016,12.957 C13.016,13.476 13.431,13.899 13.941,13.899 L15.139,13.899 C15.649,13.899 16.064,13.476 16.064,12.957 L16.064,11.994 L16.999,11.994 C17.045,11.994 17.091,11.991 17.136,11.987 C17.167,11.986 17.197,11.982 17.227,11.982 C17.916,11.967 18.507,11.828 18.998,11.573 L18.998,15.544 C18.998,16.554 18.250,17.029 17.202,17.374 C17.202,17.374 12.584,17.981 9.500,17.996 C6.745,18.027 1.796,17.374 1.796,17.374 C0.782,17.054 0.000,16.554 0.000,15.544 L0.000,11.520 C0.515,11.819 1.150,11.982 1.901,11.998 L1.930,11.998 Z"/>
</svg>