<svg 
 xmlns="http://www.w3.org/2000/svg"
 xmlns:xlink="http://www.w3.org/1999/xlink"
 width="11px" height="15px">
<path
 d="M-0.000,2.735 L-0.000,1.246 C-0.000,0.985 0.209,0.773 0.466,0.773 L3.665,0.773 L3.665,0.158 C3.665,0.071 3.734,0.000 3.820,0.000 L7.179,0.000 C7.265,0.000 7.335,0.071 7.335,0.158 L7.335,0.773 L10.534,0.773 C10.791,0.773 11.000,0.985 11.000,1.246 L11.000,2.735 L-0.000,2.735 ZM9.709,14.277 C9.692,14.681 9.365,15.000 8.967,15.000 L2.033,15.000 C1.635,15.000 1.308,14.681 1.291,14.277 L0.796,3.653 L10.204,3.653 L9.709,14.277 ZM3.931,6.291 C3.931,6.122 3.796,5.985 3.630,5.985 L3.147,5.985 C2.980,5.985 2.846,6.122 2.846,6.291 L2.846,12.361 C2.846,12.531 2.981,12.668 3.147,12.668 L3.630,12.668 C3.796,12.668 3.931,12.531 3.931,12.361 L3.931,6.291 ZM6.043,6.291 C6.043,6.122 5.908,5.985 5.741,5.985 L5.259,5.985 C5.092,5.985 4.957,6.122 4.957,6.291 L4.957,12.361 C4.957,12.531 5.092,12.668 5.259,12.668 L5.741,12.668 C5.908,12.668 6.043,12.531 6.043,12.361 L6.043,6.291 ZM8.154,6.291 C8.154,6.122 8.019,5.985 7.853,5.985 L7.370,5.985 C7.203,5.985 7.068,6.122 7.068,6.291 L7.068,12.361 C7.068,12.531 7.204,12.668 7.370,12.668 L7.853,12.668 C8.019,12.668 8.154,12.531 8.154,12.361 L8.154,6.291 Z"/>
</svg>