<svg 
 xmlns="http://www.w3.org/2000/svg"
 xmlns:xlink="http://www.w3.org/1999/xlink"
 width="38px" height="39px">
<path fill-rule="evenodd"  fill="rgb(250, 200, 24)"
 d="M36.900,17.868 C36.272,18.763 36.288,19.955 36.923,20.834 L37.512,21.642 C38.409,22.882 38.028,24.625 36.701,25.360 L35.835,25.848 C34.889,26.376 34.380,27.455 34.579,28.527 L34.762,29.511 C35.040,31.014 33.943,32.421 32.425,32.510 L31.432,32.565 C30.352,32.621 29.430,33.373 29.144,34.429 L28.881,35.396 C28.476,36.868 26.887,37.659 25.480,37.076 L24.558,36.692 C23.557,36.276 22.405,36.548 21.690,37.371 L21.038,38.123 C20.045,39.282 18.273,39.291 17.256,38.155 L16.596,37.411 C15.873,36.596 14.713,36.340 13.719,36.771 L12.805,37.163 C11.407,37.771 9.802,37.011 9.380,35.540 L9.103,34.581 C8.800,33.533 7.863,32.797 6.782,32.749 L5.789,32.709 C4.271,32.645 3.150,31.254 3.405,29.750 L3.571,28.767 C3.754,27.687 3.230,26.616 2.276,26.104 L1.402,25.632 C0.059,24.905 -0.346,23.169 0.528,21.922 L1.100,21.106 C1.728,20.210 1.712,19.019 1.077,18.139 L0.488,17.332 C-0.410,16.100 -0.028,14.357 1.299,13.613 L2.165,13.125 C3.111,12.598 3.619,11.518 3.421,10.447 L3.238,9.463 C2.960,7.960 4.056,6.553 5.574,6.464 L6.567,6.408 C7.648,6.353 8.570,5.601 8.856,4.545 L9.118,3.578 C9.524,2.106 11.113,1.315 12.519,1.898 L13.441,2.282 C14.443,2.698 15.595,2.426 16.310,1.602 L16.962,0.851 C17.963,-0.309 19.735,-0.317 20.744,0.819 L21.404,1.562 C22.127,2.378 23.287,2.634 24.280,2.202 L25.194,1.810 C26.593,1.202 28.198,1.962 28.619,3.434 L28.897,4.393 C29.199,5.441 30.137,6.177 31.218,6.225 L32.211,6.264 C33.729,6.328 34.849,7.720 34.595,9.223 L34.428,10.207 C34.245,11.287 34.770,12.358 35.724,12.870 L36.597,13.341 C37.940,14.069 38.346,15.804 37.472,17.052 L36.900,17.868 ZM13.839,12.238 C11.677,12.238 9.929,13.997 9.929,16.172 C9.929,18.339 11.677,20.107 13.839,20.107 C16.000,20.107 17.748,18.348 17.748,16.172 C17.748,13.997 16.000,12.238 13.839,12.238 ZM24.725,12.534 C24.320,12.198 23.716,12.254 23.382,12.662 L13.123,25.097 C12.790,25.504 12.845,26.112 13.251,26.448 C13.656,26.784 14.260,26.728 14.593,26.320 L24.852,13.885 C25.186,13.477 25.131,12.870 24.725,12.534 ZM24.145,18.859 C21.984,18.859 20.236,20.619 20.236,22.793 C20.236,24.968 21.984,26.728 24.145,26.728 C26.307,26.728 28.055,24.968 28.055,22.793 C28.055,20.619 26.307,18.859 24.145,18.859 ZM24.145,24.425 C23.250,24.425 22.524,23.695 22.524,22.793 C22.524,21.892 23.250,21.162 24.145,21.162 C25.041,21.162 25.766,21.892 25.766,22.793 C25.766,23.695 25.041,24.425 24.145,24.425 ZM13.847,17.804 C12.951,17.804 12.225,17.073 12.225,16.172 C12.225,15.272 12.951,14.541 13.847,14.541 C14.742,14.541 15.468,15.272 15.468,16.172 C15.468,17.073 14.742,17.804 13.847,17.804 Z"/>
</svg>